# xmcd CD database file
#
# Track frame offsets:
#	150
#	20043
#	32448
#	53940
#	73025
#	100873
#	119695
#	142035
#	157433
#	178113
#	191103
#	206128
#
# Disc length: 3100 seconds
#
# Revision: 2
# Processed by: cddbd v1.4b41PL1 Copyright (c) Steve Scherf et al.
# Submitted via: Feurio! 1.50.2ß - http://www.feurio.com
#
DISCID=bf0c1a0c
DTITLE=Santana - I grandi successi
DYEAR=1900
DGENRE=
TTITLE0=Black magic woman
TTITLE1=Europa
TTITLE2=Evil ways
TTITLE3=Flor d'luna
TTITLE4=Gitano
TTITLE5=Samba pa ti
TTITLE6=Love, devotion and surrender
TTITLE7=Oye como va
TTITLE8=Revelation
TTITLE9=Song of the wind
TTITLE10=Well all right
TTITLE11=Winning
EXTD=
EXTT0=
EXTT1=
EXTT2=
EXTT3=
EXTT4=
EXTT5=
EXTT6=
EXTT7=
EXTT8=
EXTT9=
EXTT10=
EXTT11=
PLAYORDER=
